<svg version="1.1" xmlns="http://www.w3.org/2000/svg" xmlns:xlink="http://www.w3.org/1999/xlink" width="19.82759" height="19.05094" viewBox="0,0,19.82759,19.05094"><g transform="translate(-230.0862,-170.47453)"><g data-paper-data="{&quot;isPaintingLayer&quot;:true}" fill="#ffffff" fill-rule="evenodd" stroke="none" stroke-width="1" stroke-linecap="butt" stroke-linejoin="miter" stroke-miterlimit="10" stroke-dasharray="" stroke-dashoffset="0" style="mix-blend-mode: normal"><path d="M240.75,179.25h0.75c0.41421,0 0.75,0.33579 0.75,0.75c0,0.41421 -0.33579,0.75 -0.75,0.75h-0.75v0.75c0,0.41421 -0.33579,0.75 -0.75,0.75c-0.41421,0 -0.75,-0.33579 -0.75,-0.75v-0.75h-0.75c-0.41421,0 -0.75,-0.33579 -0.75,-0.75c0,-0.41421 0.33579,-0.75 0.75,-0.75h0.75v-0.75c0,-0.41421 0.33579,-0.75 0.75,-0.75c0.41421,0 0.75,0.33579 0.75,0.75z"/><path d="M238.57152,175.79148c0,2.3417 -1.9063,3.32023 -4.248,3.32023c-2.3408,0 -4.23732,-0.97853 -4.23732,-3.32023c0,-0.57875 0.09706,-1.06846 0.28492,-1.47803l-0.07123,-3.38344c-0.0089,-0.37396 0.40958,-0.58765 0.7123,-0.36505l1.80748,1.36227c0.41848,-0.2226 0.93489,-0.32053 1.50385,-0.32053c0.57074,0 1.09606,0.09794 1.51454,0.32054l1.80748,-1.36228c0.29382,-0.2226 0.7123,-0.0089 0.7123,0.36506l-0.07122,3.38344c0.18698,0.40957 0.28491,0.89928 0.28491,1.47803zM236.11337,177.25144c0.12555,-0.13267 0.10685,-0.34725 -0.03472,-0.4719c-0.13355,-0.11576 -0.34814,-0.09795 -0.4719,0.04541c-0.09883,0.11486 -0.2413,0.17719 -0.39266,0.17719c-0.28492,0 -0.52532,-0.2315 -0.52532,-0.52532v-0.48971c0.51642,-0.14246 0.9082,-0.57786 0.9082,-0.86367c0,-0.35614 -0.56095,-0.35615 -1.23763,-0.35615c-0.68471,0 -1.23674,0 -1.23674,0.35615c0,0.28581 0.37395,0.72122 0.89839,0.85477v0.49862c0,0.29382 -0.2306,0.52532 -0.51641,0.52532c-0.15938,0 -0.30274,-0.06233 -0.40068,-0.17719c-0.11576,-0.14335 -0.32944,-0.16116 -0.4719,-0.04541c-0.14157,0.12465 -0.15136,0.33923 -0.03472,0.4719c0.2226,0.26712 0.55114,0.41848 0.9073,0.41848c0.32944,0 0.63217,-0.14157 0.85477,-0.36417c0.21457,0.2226 0.51642,0.36417 0.85476,0.36417c0.34814,0 0.67669,-0.15137 0.89928,-0.41848z"/><path d="M241.36181,175.80525c0,-0.57875 0.09794,-1.06846 0.28492,-1.47803l-0.07122,-3.38344c0,-0.37396 0.41848,-0.58766 0.7123,-0.36506l1.80747,1.36228c0.41848,-0.2226 0.9438,-0.32054 1.51454,-0.32054c0.56895,0 1.08536,0.09793 1.50384,0.32053l1.80748,-1.36227c0.30273,-0.2226 0.72121,-0.00891 0.71231,0.36505l-0.07123,3.38344c0.18786,0.40957 0.28492,0.89928 0.28492,1.47803c0,2.3417 -1.89651,3.32023 -4.23731,3.32023c-2.3417,0 -4.24801,-0.97853 -4.24801,-3.32023zM243.81994,177.2652c0.22259,0.26711 0.55114,0.41848 0.89928,0.41848c0.33835,0 0.64019,-0.14157 0.85476,-0.36417c0.2226,0.2226 0.52532,0.36417 0.85477,0.36417c0.35616,0 0.6847,-0.15136 0.9073,-0.41848c0.11665,-0.13267 0.10685,-0.34725 -0.03472,-0.4719c-0.14246,-0.11576 -0.35614,-0.09794 -0.4719,0.04541c-0.09794,0.11486 -0.2413,0.17719 -0.40068,0.17719c-0.28581,0 -0.51641,-0.23149 -0.51641,-0.52532v-0.49862c0.52444,-0.13355 0.89839,-0.56896 0.89839,-0.85477c0,-0.35614 -0.55203,-0.35615 -1.23673,-0.35615c-0.67668,0 -1.23763,0 -1.23763,0.35615c0,0.28581 0.39177,0.72121 0.90819,0.86366v0.48971c0,0.29382 -0.2404,0.52532 -0.52532,0.52532c-0.15136,0 -0.29384,-0.06233 -0.39266,-0.17719c-0.12376,-0.14336 -0.33835,-0.16117 -0.4719,-0.04541c-0.14157,0.12465 -0.16027,0.33924 -0.03472,0.4719z" data-paper-data="{&quot;index&quot;:null}"/><path d="M238.63819,186.19148c0,2.3417 -1.9063,3.32023 -4.248,3.32023c-2.3408,0 -4.23732,-0.97853 -4.23732,-3.32023c0,-0.57875 0.09706,-1.06846 0.28492,-1.47803l-0.07123,-3.38344c-0.0089,-0.37396 0.40958,-0.58765 0.7123,-0.36505l1.80748,1.36227c0.41848,-0.2226 0.93489,-0.32053 1.50385,-0.32053c0.57074,0 1.09606,0.09794 1.51454,0.32054l1.80748,-1.36228c0.29382,-0.2226 0.7123,-0.0089 0.7123,0.36506l-0.07122,3.38344c0.18698,0.40957 0.28491,0.89928 0.28491,1.47803zM236.18004,187.65144c0.12555,-0.13267 0.10685,-0.34725 -0.03472,-0.4719c-0.13355,-0.11576 -0.34814,-0.09795 -0.4719,0.04541c-0.09883,0.11486 -0.2413,0.17719 -0.39266,0.17719c-0.28492,0 -0.52532,-0.2315 -0.52532,-0.52532v-0.48971c0.51642,-0.14246 0.9082,-0.57786 0.9082,-0.86367c0,-0.35614 -0.56095,-0.35615 -1.23763,-0.35615c-0.68471,0 -1.23674,0 -1.23674,0.35615c0,0.28581 0.37395,0.72122 0.89839,0.85477v0.49862c0,0.29382 -0.2306,0.52532 -0.51641,0.52532c-0.15938,0 -0.30274,-0.06233 -0.40068,-0.17719c-0.11576,-0.14335 -0.32944,-0.16116 -0.4719,-0.04541c-0.14157,0.12465 -0.15136,0.33923 -0.03472,0.4719c0.2226,0.26712 0.55114,0.41848 0.9073,0.41848c0.32944,0 0.63217,-0.14157 0.85477,-0.36417c0.21457,0.2226 0.51642,0.36417 0.85476,0.36417c0.34814,0 0.67669,-0.15137 0.89928,-0.41848z"/><path d="M241.42848,186.20525c0,-0.57875 0.09794,-1.06846 0.28491,-1.47803l-0.07122,-3.38344c0,-0.37396 0.41847,-0.58766 0.7123,-0.36506l1.80747,1.36228c0.41848,-0.2226 0.9438,-0.32054 1.51454,-0.32054c0.56895,0 1.08536,0.09793 1.50384,0.32053l1.80748,-1.36227c0.30273,-0.2226 0.72121,-0.00891 0.71231,0.36505l-0.07123,3.38344c0.18786,0.40957 0.28492,0.89928 0.28492,1.47803c0,2.3417 -1.89651,3.32023 -4.23731,3.32023c-2.3417,0 -4.248,-0.97853 -4.248,-3.32023zM243.88661,187.6652c0.22259,0.26711 0.55114,0.41848 0.89928,0.41848c0.33835,0 0.64019,-0.14157 0.85476,-0.36417c0.2226,0.2226 0.52532,0.36417 0.85477,0.36417c0.35616,0 0.6847,-0.15136 0.9073,-0.41848c0.11665,-0.13267 0.10685,-0.34725 -0.03472,-0.4719c-0.14246,-0.11576 -0.35614,-0.09794 -0.4719,0.04541c-0.09794,0.11486 -0.2413,0.17719 -0.40068,0.17719c-0.28581,0 -0.51641,-0.23149 -0.51641,-0.52532v-0.49862c0.52444,-0.13355 0.89839,-0.56896 0.89839,-0.85477c0,-0.35614 -0.55203,-0.35615 -1.23673,-0.35615c-0.67668,0 -1.23763,0 -1.23763,0.35615c0,0.28581 0.39177,0.72121 0.90819,0.86366v0.48971c0,0.29382 -0.2404,0.52532 -0.52532,0.52532c-0.15136,0 -0.29384,-0.06233 -0.39266,-0.17719c-0.12376,-0.14336 -0.33835,-0.16117 -0.4719,-0.04541c-0.14157,0.12465 -0.16027,0.33924 -0.03472,0.4719z" data-paper-data="{&quot;index&quot;:null}"/></g></g></svg>